<svg xmlns="http://www.w3.org/2000/svg" xmlns:xlink="http://www.w3.org/1999/xlink" version="1.1" width="256" height="256" viewBox="0 0 256 256" xml:space="preserve">

<defs>
</defs>
<g style="stroke: none; stroke-width: 0; stroke-dasharray: none; stroke-linecap: butt; stroke-linejoin: miter; stroke-miterlimit: 10; fill: none; fill-rule: nonzero; opacity: 1;" transform="translate(1.4065934065934016 1.4065934065934016) scale(2.81 2.81)" >
	<path d="M 90 45.105 c 0 -0.065 -0.011 -0.127 -0.017 -0.191 c -0.006 -0.066 -0.007 -0.132 -0.02 -0.198 c -0.014 -0.072 -0.039 -0.14 -0.061 -0.209 c -0.017 -0.055 -0.028 -0.111 -0.05 -0.165 c -0.047 -0.114 -0.105 -0.223 -0.171 -0.327 c -0.005 -0.007 -0.007 -0.015 -0.011 -0.022 c -0.003 -0.004 -0.006 -0.007 -0.009 -0.011 c -0.071 -0.106 -0.151 -0.204 -0.241 -0.295 c -0.038 -0.038 -0.081 -0.067 -0.121 -0.102 c -0.059 -0.051 -0.116 -0.104 -0.181 -0.148 c -0.051 -0.034 -0.107 -0.059 -0.16 -0.088 c -0.061 -0.033 -0.119 -0.071 -0.183 -0.098 c -0.104 -0.044 -0.212 -0.075 -0.321 -0.1 c -0.018 -0.004 -0.034 -0.013 -0.052 -0.016 L 78.6 41.135 c -1.08 -0.226 -2.14 0.477 -2.36 1.559 s 0.478 2.139 1.56 2.36 l 5.071 1.036 L 51.86 66.583 l -16.631 -6.31 c -0.602 -0.229 -1.276 -0.154 -1.812 0.201 L 0.898 81.966 c -0.922 0.609 -1.175 1.851 -0.566 2.771 c 0.385 0.582 1.021 0.897 1.67 0.897 c 0.378 0 0.761 -0.107 1.101 -0.331 l 31.664 -20.927 l 16.632 6.31 c 0.6 0.227 1.275 0.152 1.812 -0.201 l 31.865 -21.059 l -1.035 5.069 c -0.221 1.083 0.478 2.139 1.56 2.36 c 0.136 0.027 0.27 0.04 0.402 0.04 c 0.931 0 1.765 -0.652 1.958 -1.6 l 2.001 -9.801 c 0.005 -0.024 0.003 -0.048 0.007 -0.072 C 89.985 45.319 89.999 45.213 90 45.105 z" style="stroke: none; stroke-width: 1; stroke-dasharray: none; stroke-linecap: butt; stroke-linejoin: miter; stroke-miterlimit: 10; fill: rgb(0,0,0); fill-rule: nonzero; opacity: 1;" transform=" matrix(1 0 0 1 0 0) " stroke-linecap="round" />
	<path d="M 72.29 23.922 l -5.299 -4.077 v -8.454 c 0 -2.023 -1.646 -3.669 -3.669 -3.669 h -3.624 c -2.023 0 -3.669 1.646 -3.669 3.669 v 0.019 l -7.676 -5.906 c -1.974 -1.519 -4.732 -1.519 -6.708 0 L 17.71 23.922 c -1.005 0.774 -1.407 2.101 -0.998 3.302 s 1.536 2.008 2.804 2.008 h 3.493 v 26.556 c 0 1.104 0.896 2 2 2 s 2 -0.896 2 -2 V 29.232 h 35.982 v 18.3 c 0 1.104 0.896 2 2 2 s 2 -0.896 2 -2 v -18.3 h 3.492 c 1.269 0 2.396 -0.807 2.805 -2.008 S 73.296 24.695 72.29 23.922 z M 60.03 11.722 h 2.962 v 5.045 l -2.962 -2.279 V 11.722 z M 22.567 25.232 L 44.086 8.674 c 0.538 -0.414 1.29 -0.415 1.829 0 l 21.52 16.558 H 22.567 z" style="stroke: none; stroke-width: 1; stroke-dasharray: none; stroke-linecap: butt; stroke-linejoin: miter; stroke-miterlimit: 10; fill: rgb(0,0,0); fill-rule: nonzero; opacity: 1;" transform=" matrix(1 0 0 1 0 0) " stroke-linecap="round" />
</g>
</svg>